HIERARCHY
ROOT pelvis
{
  OFFSET 0 100 0
  CHANNELS 6 Xposition Yposition Zposition Zrotation Xrotation Yrotation
  JOINT pelvis_right_femur
  {
    OFFSET -10.78128 -3.44521 -0.5502486
    CHANNELS 3 Zrotation Xrotation Yrotation
    JOINT right_femur_tibia
    {
      OFFSET -0.8047443 -44.0398 -0.1307829
      CHANNELS 3 Zrotation Xrotation Yrotation
      JOINT right_tibia_foot
      {
        OFFSET 3.006224 -47.83518 -5
        CHANNELS 3 Zrotation Xrotation Yrotation
        End Site
        {
          OFFSET 0 -5 15
        }
      }
    }
  }
  JOINT pelvis_left_femur
  {
    OFFSET 10.78128 -3.44521 -0.5502486
    CHANNELS 3 Zrotation Xrotation Yrotation
    JOINT left_femur_tibia
    {
      OFFSET 0.8047443 -44.0398 -0.1307829
      CHANNELS 3 Zrotation Xrotation Yrotation
      JOINT left_tibia_foot
      {
        OFFSET -4.370144 -48.10324 -4.275266
        CHANNELS 3 Zrotation Xrotation Yrotation
        End Site
        {
          OFFSET 0 -5 15
        }
      }
    }
  }
  JOINT pelvis_spine1
  {
    OFFSET 0 6.468898 -3.129235
    CHANNELS 3 Zrotation Xrotation Yrotation
    JOINT spine1
    {
      OFFSET 0 23.15396 4.99043
      CHANNELS 3 Zrotation Xrotation Yrotation
      JOINT spine2
      {
        OFFSET 0 20.79997 -5.064912
        CHANNELS 3 Zrotation Xrotation Yrotation
        JOINT neck
        {
          OFFSET 0 14.38658 9.616178
          CHANNELS 3 Zrotation Xrotation Yrotation
          End Site
          {
            OFFSET 0 20 0
          }
        }
      }
      JOINT right_manubrium
      {
        OFFSET -5.722621 16.35077 3.967754
        CHANNELS 3 Zrotation Xrotation Yrotation
        JOINT right_clavicle
        {
          OFFSET -13.16364 1.694482 -4.693211
          CHANNELS 3 Zrotation Xrotation Yrotation
          JOINT right_humerus
          {
            OFFSET -28.5034 -0.3100689 -2.792744
            CHANNELS 3 Zrotation Xrotation Yrotation
            JOINT right_radius
            {
              OFFSET -25.15693 0.02248979 -1.271978
              CHANNELS 3 Zrotation Xrotation Yrotation
              End Site
              {
                OFFSET -15 0 0
              }
            }
          }
        }
      }
      JOINT left_manubrium
      {
        OFFSET 5.722621 16.35077 3.967754
        CHANNELS 3 Zrotation Xrotation Yrotation
        JOINT left_clavicle
        {
          OFFSET 13.16364 1.694482 -4.693211
          CHANNELS 3 Zrotation Xrotation Yrotation
          JOINT left_humerus
          {
            OFFSET 29.39168 -1.063119 -2.237045
            CHANNELS 3 Zrotation Xrotation Yrotation
            JOINT left_radius
            {
              OFFSET 24.59957 -0.9528479 0.9047498
              CHANNELS 3 Zrotation Xrotation Yrotation
              End Site
              {
                OFFSET 15 -0 -0
              }
            }
          }
        }
      }
    }
  }
}
MOTION
Frames: 9
Frame Time: 0.0416666666667
1612.652 105.4354 2560.035 7.514799 -3.319516 57.70935 4.216977 9.266089 5.548705 -0 11.53363 -0 0.113811 -11.89728 -3.374514 -0.2011073 -19.15901 -3.570592 -0 42.94015 -0 -7.763556 -7.989506 18.78382 -0.8805387 2.172464 7.908424 -0.5610939 10.22612 -3.353626 2.206183 22.88504 5.364503 2.57004 -17.55378 6.912908 1.329076 -19.37859 11.53777 83.92441 25.27741 -11.49007 -0 0 18.184 -23.33369 12.84937 11.95258 5.045696 -17.49603 -2.954624 -91.88624 25.21513 20.34349 0 0 -16.77897 -1.567607 5.726929 15.75647
1618.023 104.4647 2562.99 7.42149 -3.441768 57.01812 3.804415 13.48462 5.189049 -0 11.37774 -0 0.8155393 -14.19684 -2.912388 0.758826 -22.8564 -2.799125 -0 33.3799 -0 -7.388558 -8.559559 19.65556 -0.8536058 2.097876 8.073259 -0.773312 9.576774 -2.815581 2.182181 22.92144 5.159797 2.073966 -17.67698 7.010538 0.02184642 -20.62286 11.16699 83.01293 23.10495 -8.853274 -0 0 20.70085 -24.18122 11.67488 13.04212 5.188375 -16.2858 -2.608237 -93.01279 24.86134 22.20455 0 0 -14.26403 -2.038988 5.262819 16.06566
1623.743 103.1979 2566.022 7.370027 -3.647617 56.3918 3.296296 16.86778 4.943048 -0 13.08794 -0 1.347577 -15.61494 -2.720666 1.110222 -24.54676 -2.846006 -0 25.6097 -0 -7.258451 -8.800049 20.33289 -0.7944817 1.761185 8.06974 -0.9487769 8.949888 -2.39752 2.278402 22.9537 4.924355 1.623296 -17.74022 7.197272 -1.176704 -21.48241 10.63628 82.7509 20.87406 -6.947106 -0 0 22.62627 -24.67306 10.55214 13.77993 5.219017 -15.08864 -2.343741 -94.01741 24.53025 23.83668 0 0 -11.41689 -2.459252 5.130047 16.37281
1629.806 102.0051 2569.142 7.443336 -3.771299 55.87945 2.602051 18.8415 4.936756 -0 17.2749 -0 1.811119 -15.34957 -2.795599 0.5809595 -24.36542 -3.746682 -0 21.12309 -0 -7.198826 -8.847958 20.65261 -0.8508149 1.237656 8.067596 -1.161862 8.583509 -2.13052 2.474188 22.89366 4.749456 1.36434 -17.72543 7.432031 -1.933403 -21.89914 10.14076 82.99784 19.19267 -6.028271 -0 0 23.87211 -24.96246 9.872466 14.11412 5.089548 -14.12498 -2.282646 -94.72437 24.33992 25.19734 0 0 -9.044074 -2.879369 5.178353 16.84754
1636.118 101.2757 2572.296 7.603441 -3.629119 55.5899 1.731591 18.8658 5.157599 -0 24.29529 -0 2.429307 -13.07796 -3.088157 -0.7665949 -22.59983 -5.164053 -0 20.22151 -0 -6.923955 -8.933496 20.45495 -1.179654 0.6182376 8.142005 -1.409982 8.632163 -2.113702 2.636804 22.65576 4.773435 1.386655 -17.65721 7.652215 -1.865827 -21.8565 9.89983 83.38202 18.81039 -6.16694 -0 0 24.36147 -25.22232 10.03193 14.08314 4.784988 -13.61874 -2.460092 -94.85926 24.29037 26.10272 0 0 -7.901724 -3.219933 5.249634 17.37815
1642.516 101.2904 2575.369 7.691697 -3.137257 55.65433 0.8283194 16.74852 5.400885 -0 33.70529 -0 3.35022 -9.26699 -3.511298 -2.531738 -19.72384 -6.568617 -0 21.69147 -0 -6.295526 -9.266773 19.70404 -1.815823 0.02938914 8.224941 -1.627249 9.058678 -2.425368 2.585248 22.24208 5.14959 1.713537 -17.53994 7.816057 -0.7180923 -21.36606 10.03625 83.47518 20.34319 -7.14921 -0 0 24.07613 -25.61665 11.23471 13.84707 4.369739 -13.69451 -2.800092 -94.25286 24.27336 26.32353 0 0 -8.216628 -3.317909 5.313029 17.65801
1648.825 102.0625 2578.252 7.63388 -2.481593 56.15942 0.1015637 12.96605 5.396496 -0 43.67537 -0 4.332548 -5.084866 -4.032374 -4.172305 -16.25289 -7.596914 -0 23.36791 -0 -5.515028 -9.96334 18.64937 -2.563854 -0.3494622 8.113607 -1.744377 9.610389 -2.992863 2.281489 21.83495 5.842056 2.209932 -17.361 7.942284 1.159265 -20.52282 10.41433 83.31381 23.39344 -8.510401 -0 0 23.09678 -26.09715 13.05947 13.61415 4.00262 -14.24438 -3.1679 -93.06944 24.23386 25.7046 0 0 -9.429783 -3.08936 5.45526 17.50777
1654.921 103.306 2580.914 7.604556 -2.064001 57.08822 -0.2917701 8.458075 5.055823 -0 51.47317 -0 4.77413 -1.699502 -4.69277 -5.284977 -12.43243 -8.208822 -0 23.60994 -0 -4.93472 -11.00455 17.72608 -3.089366 -0.3798322 7.611638 -1.730704 10.00944 -3.622992 1.917449 21.70038 6.503719 2.568938 -17.17402 8.070315 2.716047 -19.58692 10.70092 83.55684 26.16928 -9.895386 -0 0 21.6139 -26.26619 14.4383 13.43527 3.839521 -14.99268 -3.488953 -91.72545 24.27736 24.2572 0 0 -10.6879 -2.628153 5.698151 17.0774
1660.76 104.6236 2583.401 7.797033 -2.106672 58.31264 -0.3365606 3.889459 4.503636 -0 55.23431 -0 4.27416 0.4039508 -5.484252 -5.779967 -8.252221 -8.516065 -0 22.25327 -0 -4.688369 -12.25689 17.148 -3.200871 -0.105244 6.715765 -1.57982 10.17111 -4.205484 1.701941 21.92355 6.788561 2.572351 -17.08785 8.190699 3.115874 -18.83435 10.69591 84.7215 27.03249 -11.30527 -0 0 19.85993 -25.76772 14.57713 13.1797 3.9117 -15.77462 -3.79198 -90.4649 24.49764 22.12416 0 0 -11.69203 -2.067809 5.944842 16.57338
